<?xml version="1.0" encoding="utf-8"?>
<!-- Generator: Adobe Illustrator 24.0.3, SVG Export Plug-In . SVG Version: 6.00 Build 0)  -->
<svg version="1.1" id="Layer_1" focusable="false" xmlns="http://www.w3.org/2000/svg" xmlns:xlink="http://www.w3.org/1999/xlink"
	 x="0px" y="0px" viewBox="0 0 20 20" style="enable-background:new 0 0 20 20;" xml:space="preserve">
<style type="text/css">
	.st0{fill:#FFFFFF;}
</style>
<path class="st0" d="M10,0c2.7,0,5.1,1.1,6.9,2.8l1.4-1.4C19,0.7,20,1.2,20,2v5.4c0,0.5-0.4,1-1,1h-5.4c-0.9,0-1.3-1-0.7-1.7
	l1.7-1.7c-1.2-1.2-2.9-1.8-4.6-1.8c-3.7,0-6.9,3-6.8,6.8c0,3.7,3,6.7,6.8,6.7c1.7,0,3.2-0.6,4.5-1.7c0.2-0.2,0.5-0.2,0.7,0l1.6,1.6
	c0.2,0.2,0.2,0.5,0,0.7C14.9,19,12.6,20,10,20C4.5,20,0,15.5,0,10C0,4.5,4.5,0,10,0z"/>
</svg>
