<?xml version="1.0" encoding="utf-8"?>
<!-- Generator: Adobe Illustrator 24.0.3, SVG Export Plug-In . SVG Version: 6.00 Build 0)  -->
<svg version="1.1" id="Layer_1" xmlns="http://www.w3.org/2000/svg" xmlns:xlink="http://www.w3.org/1999/xlink" x="0px" y="0px"
	 width="512px" height="512px" viewBox="0 0 512 512" style="enable-background:new 0 0 512 512;" xml:space="preserve">
<style type="text/css">
	.st0{fill:#005734;}
</style>
<g>
	<path class="st0" d="M451.6,311.7c33.3,0,60.4-27.1,60.4-60.4v-28.9h-38.3c-11.8,0-23.1,3.4-32.9,9.8c-1.1-6-2.5-11.9-4.1-17.7
		l11.6-6.6c14-8.1,24-21.1,28.2-36.7c4.2-15.6,2-31.9-6-45.9l-14.4-25l-33.2,19.2c-10.2,5.9-18.3,14.5-23.6,24.9
		c-4.2-4.9-8.6-9.6-13.3-14.1l5.6-9.6c8.1-14,10.2-30.3,6-45.9c-4.2-15.6-14.2-28.6-28.2-36.7l-25-14.4l-19.2,33.2
		c-8.1,14-10.2,30.3-6,45.9s14.2,28.6,28.2,36.7l10.8,6.2c35.4,30,55.7,73.8,55.7,120.4c0,87-70.8,157.8-157.8,157.8
		c-87,0-157.8-70.8-157.8-157.8c0-46.5,20.3-90.3,55.7-120.4l10.8-6.2c14-8.1,24-21.1,28.2-36.7c4.2-15.6,2-31.9-6-45.9l-19.2-33.2
		l-25,14.4c-14,8.1-24,21.1-28.2,36.7c-4.2,15.6-2,31.9,6,45.9l5.6,9.6c-4.7,4.5-9.1,9.2-13.3,14.1c-5.3-10.4-13.4-19-23.6-24.9
		l-33.2-19.2l-14.4,25c-8.1,14-10.2,30.3-6,45.9s14.2,28.6,28.2,36.7l11.5,6.6c-1.7,5.8-3,11.8-4.1,17.7c-9.7-6.4-21.1-9.8-32.9-9.8
		H0v28.9c0,33.3,27.1,60.4,60.5,60.4l13.3,0c1.5,5.9,3.3,11.8,5.3,17.5c-11.6-0.6-23.2,2.1-33.4,7.9l-33.2,19.2l14.4,25
		c8.1,14,21.1,24,36.7,28.2c5.2,1.4,10.5,2.1,15.7,2.1c10.5,0,20.8-2.7,30.1-8.1l11.6-6.7c4.2,4.4,8.7,8.5,13.3,12.5
		c-10.4,5.3-19.1,13.4-25,23.6l-19.2,33.2l25,14.4c9.3,5.4,19.6,8.1,30.1,8.1c5.2,0,10.5-0.7,15.7-2.1c15.6-4.2,28.6-14.2,36.7-28.2
		l6.6-11.5c16.3,4.7,33.6,7.2,51.4,7.2c17.8,0,35.1-2.5,51.4-7.2l6.7,11.6c8.1,14,21.1,24,36.7,28.2c5.2,1.4,10.5,2.1,15.7,2.1
		c10.5,0,20.8-2.7,30.1-8.1l25-14.4l-19.2-33.2c-5.9-10.2-14.6-18.4-25-23.6c4.6-3.9,9.1-8.1,13.3-12.5l11.7,6.8
		c9.3,5.4,19.6,8.1,30.1,8.1c5.2,0,10.5-0.7,15.7-2.1c15.6-4.2,28.6-14.2,36.7-28.2l14.4-25l-33.2-19.2c-10.2-5.9-21.8-8.6-33.4-7.9
		c2-5.7,3.8-11.5,5.3-17.5L451.6,311.7z"/>
	<path class="st0" d="M197.1,293.5l-13.8,80.8l72.6-38.1l72.6,38.1l-13.8-80.8l58.6-57.3l-81.1-11.9L256,150.9l-36.4,73.5
		l-81.1,11.9L197.1,293.5z"/>
</g>
</svg>
