<svg width="16" height="16" viewBox="0 0 16 16" fill="none" xmlns="http://www.w3.org/2000/svg">
<path fill-rule="evenodd" clip-rule="evenodd" d="M0 8C0 3.58875 3.58875 0 8 0C12.4113 0 16 3.58875 16 8C16 12.4113 12.4113 16 8 16C3.58875 16 0 12.4113 0 8ZM3.60854 13.2336C4.79712 14.2326 6.32955 14.8349 8 14.8349C11.7688 14.8349 14.8349 11.7688 14.8349 8C14.8349 6.32955 14.2326 4.79712 13.2336 3.60854L3.60854 13.2336ZM2.78331 12.4115C1.77425 11.2201 1.16506 9.67986 1.16506 8C1.16506 4.23125 4.23125 1.16506 8 1.16506C9.67986 1.16506 11.2201 1.77425 12.4115 2.78331L2.78331 12.4115Z" fill="#E74C3C"/>
</svg>
